<svg width="20" height="11" viewBox="0 0 20 11" fill="none" xmlns="http://www.w3.org/2000/svg">
<path d="M10.0001 8.41046L17.8751 1.19171C18.0584 1.02365 18.2876 0.939624 18.5626 0.939624C18.8376 0.939624 19.0751 1.02365 19.2751 1.19171C19.4751 1.37504 19.5751 1.59275 19.5751 1.84483C19.5751 2.09692 19.4751 2.31462 19.2751 2.49796L11.0501 10.0375C10.9001 10.175 10.7334 10.2743 10.5501 10.3355C10.3668 10.3966 10.1834 10.4271 10.0001 10.4271C9.81678 10.4271 9.63344 10.3966 9.45011 10.3355C9.26678 10.2743 9.10011 10.175 8.95011 10.0375L0.700109 2.47504C0.500109 2.29171 0.404276 2.07782 0.412609 1.83337C0.420943 1.58893 0.525109 1.37504 0.725109 1.19171C0.925109 1.02365 1.15844 0.935804 1.42511 0.928166C1.69178 0.920527 1.92511 1.00837 2.12511 1.19171L10.0001 8.41046Z" fill="#1C1B1F"/>
</svg>
