<svg width="52" height="37" viewBox="0 0 52 37" fill="none" xmlns="http://www.w3.org/2000/svg">
<path d="M20.4572 0.499998V22.1H0.0571669V0.499998H20.4572ZM14.8172 5.03H5.69717V17.6H14.8172V5.03Z" fill="#F47C24"/>
<path d="M20.4572 0.499998H20.9572V-1.78814e-06H20.4572V0.499998ZM20.4572 22.1V22.6H20.9572V22.1H20.4572ZM0.0571671 22.1H-0.442833V22.6H0.0571671V22.1ZM0.0571671 0.499998V-1.78814e-06H-0.442833V0.499998H0.0571671ZM14.8172 5.03H15.3172V4.53H14.8172V5.03ZM5.69717 5.03V4.53H5.19717V5.03H5.69717ZM5.69717 17.6H5.19717V18.1H5.69717V17.6ZM14.8172 17.6V18.1H15.3172V17.6H14.8172ZM19.9572 0.499998V22.1H20.9572V0.499998H19.9572ZM20.4572 21.6H0.0571671V22.6H20.4572V21.6ZM0.557167 22.1V0.499998H-0.442833V22.1H0.557167ZM0.0571671 0.999998H20.4572V-1.78814e-06H0.0571671V0.999998ZM14.8172 4.53H5.69717V5.53H14.8172V4.53ZM5.19717 5.03V17.6H6.19717V5.03H5.19717ZM5.69717 18.1H14.8172V17.1H5.69717V18.1ZM15.3172 17.6V5.03H14.3172V17.6H15.3172Z" fill="#F47C24"/>
<path d="M27.3669 19C27.4869 21.88 27.8069 24.21 28.3269 25.99C28.8469 27.75 29.6369 29.11 30.6969 30.07C31.7569 31.01 33.1869 31.62 34.9869 31.9L33.7869 36.1C31.4869 35.76 29.5869 35.15 28.0869 34.27C26.6069 33.39 25.4069 32.11 24.4869 30.43C23.5669 32.11 22.3569 33.39 20.8569 34.27C19.3769 35.15 17.4869 35.76 15.1869 36.1L13.9869 31.9C15.7869 31.62 17.2169 31.01 18.2769 30.07C19.3369 29.11 20.1269 27.75 20.6469 25.99C21.1669 24.21 21.4869 21.88 21.6069 19H14.5869V14.5H34.3869V19H27.3669Z" fill="#FFCD2A"/>
<path d="M27.3669 19V18.5H26.8456L26.8673 19.0208L27.3669 19ZM28.3269 25.99L27.8469 26.1302L27.8473 26.1317L28.3269 25.99ZM30.6969 30.07L30.3612 30.4406L30.3651 30.4441L30.6969 30.07ZM34.9869 31.9L35.4676 32.0374L35.6232 31.493L35.0637 31.4059L34.9869 31.9ZM33.7869 36.1L33.7137 36.5946L34.1472 36.6587L34.2676 36.2374L33.7869 36.1ZM28.0869 34.27L27.8313 34.6998L27.8338 34.7013L28.0869 34.27ZM24.4869 30.43L24.9254 30.1898L24.4869 29.389L24.0483 30.1898L24.4869 30.43ZM20.8569 34.27L20.6038 33.8387L20.6013 33.8402L20.8569 34.27ZM15.1869 36.1L14.7061 36.2374L14.8265 36.6587L15.26 36.5946L15.1869 36.1ZM13.9869 31.9L13.91 31.4059L13.3506 31.493L13.5061 32.0374L13.9869 31.9ZM18.2769 30.07L18.6086 30.4441L18.6125 30.4406L18.2769 30.07ZM20.6469 25.99L21.1264 26.1317L21.1268 26.1302L20.6469 25.99ZM21.6069 19L22.1064 19.0208L22.1281 18.5H21.6069V19ZM14.5869 19H14.0869V19.5H14.5869V19ZM14.5869 14.5V14H14.0869V14.5H14.5869ZM34.3869 14.5H34.8869V14H34.3869V14.5ZM34.3869 19V19.5H34.8869V19H34.3869ZM26.8673 19.0208C26.9882 21.9216 27.3111 24.2962 27.8469 26.1302L28.8068 25.8498C28.3026 24.1238 27.9856 21.8384 27.8664 18.9792L26.8673 19.0208ZM27.8473 26.1317C28.3861 27.9552 29.2164 29.4038 30.3612 30.4406L31.0325 29.6994C30.0573 28.8162 29.3076 27.5448 28.8064 25.8483L27.8473 26.1317ZM30.3651 30.4441C31.5147 31.4635 33.0421 32.1035 34.91 32.3941L35.0637 31.4059C33.3317 31.1365 31.999 30.5565 31.0286 29.6959L30.3651 30.4441ZM34.5061 31.7626L33.3061 35.9626L34.2676 36.2374L35.4676 32.0374L34.5061 31.7626ZM33.86 35.6054C31.6033 35.2718 29.7693 34.6773 28.3399 33.8387L27.8338 34.7013C29.4044 35.6227 31.3704 36.2482 33.7137 36.5946L33.86 35.6054ZM28.3424 33.8402C26.9477 33.0109 25.8074 31.8005 24.9254 30.1898L24.0483 30.6702C25.0063 32.4195 26.2661 33.7691 27.8313 34.6998L28.3424 33.8402ZM24.0483 30.1898C23.1672 31.7988 22.0181 33.009 20.6038 33.8387L21.1099 34.7013C22.6956 33.771 23.9665 32.4212 24.9254 30.6702L24.0483 30.1898ZM20.6013 33.8402C19.1932 34.6775 17.3705 35.2718 15.1137 35.6054L15.26 36.5946C17.6032 36.2482 19.5605 35.6225 21.1124 34.6998L20.6013 33.8402ZM15.6676 35.9626L14.4676 31.7626L13.5061 32.0374L14.7061 36.2374L15.6676 35.9626ZM14.0637 32.3941C15.9317 32.1035 17.459 31.4635 18.6086 30.4441L17.9451 29.6959C16.9747 30.5565 15.6421 31.1365 13.91 31.4059L14.0637 32.3941ZM18.6125 30.4406C19.7573 29.4038 20.5876 27.9552 21.1264 26.1317L20.1673 25.8483C19.6661 27.5448 18.9164 28.8162 17.9412 29.6994L18.6125 30.4406ZM21.1268 26.1302C21.6626 24.2962 21.9856 21.9216 22.1064 19.0208L21.1073 18.9792C20.9882 21.8384 20.6711 24.1238 20.1669 25.8498L21.1268 26.1302ZM21.6069 18.5H14.5869V19.5H21.6069V18.5ZM15.0869 19V14.5H14.0869V19H15.0869ZM14.5869 15H34.3869V14H14.5869V15ZM33.8869 14.5V19H34.8869V14.5H33.8869ZM34.3869 18.5H27.3669V19.5H34.3869V18.5Z" fill="#FFCD2A"/>
<path d="M41.7826 6.2C43.9026 6.2 45.7226 6.61 47.2426 7.43C48.7826 8.23 49.9526 9.39 50.7526 10.91C51.5726 12.43 51.9826 14.24 51.9826 16.34V18.26C51.9826 20.36 51.5726 22.17 50.7526 23.69C49.9526 25.21 48.7826 26.38 47.2426 27.2C45.7226 28 43.9026 28.4 41.7826 28.4C39.6626 28.4 37.8326 28 36.2926 27.2C34.7726 26.38 33.6026 25.21 32.7826 23.69C31.9826 22.17 31.5826 20.36 31.5826 18.26V16.31C31.5826 13.13 32.4826 10.65 34.2826 8.87C36.0826 7.09 38.5826 6.2 41.7826 6.2ZM41.7826 10.7C40.3626 10.7 39.2526 11.09 38.4526 11.87C37.6726 12.65 37.2826 13.74 37.2826 15.14V19.46C37.2826 20.86 37.6726 21.95 38.4526 22.73C39.2526 23.51 40.3626 23.9 41.7826 23.9C43.2026 23.9 44.3026 23.51 45.0826 22.73C45.8826 21.95 46.2826 20.86 46.2826 19.46V15.14C46.2826 13.74 45.8826 12.65 45.0826 11.87C44.3026 11.09 43.2026 10.7 41.7826 10.7Z" fill="#FF5A5A"/>
<path d="M47.2426 7.43L47.0052 7.8701L47.0121 7.8737L47.2426 7.43ZM50.7526 10.91L50.3101 11.1429L50.3126 11.1474L50.7526 10.91ZM50.7526 23.69L50.3125 23.4526L50.3102 23.4571L50.7526 23.69ZM47.2426 27.2L47.4755 27.6425L47.4776 27.6413L47.2426 27.2ZM36.2926 27.2L36.0552 27.6401L36.0621 27.6437L36.2926 27.2ZM32.7826 23.69L32.3401 23.9229L32.3426 23.9274L32.7826 23.69ZM34.2826 8.87L34.6342 9.22552H34.6342L34.2826 8.87ZM38.4526 11.87L38.1035 11.512L38.0991 11.5164L38.4526 11.87ZM38.4526 22.73L38.099 23.0836L38.1036 23.088L38.4526 22.73ZM45.0826 22.73L44.7335 22.372L44.7291 22.3764L45.0826 22.73ZM45.0826 11.87L44.729 12.2236L44.7336 12.228L45.0826 11.87ZM41.7826 6.7C43.8384 6.7 45.573 7.09739 47.0052 7.87005L47.48 6.98995C45.8723 6.12261 43.9669 5.7 41.7826 5.7V6.7ZM47.0121 7.8737C48.4626 8.62721 49.5582 9.71411 50.3102 11.1429L51.1951 10.6771C50.3471 9.06588 49.1026 7.83279 47.4731 6.9863L47.0121 7.8737ZM50.3126 11.1474C51.0856 12.5803 51.4826 14.3051 51.4826 16.34H52.4826C52.4826 14.1749 52.0597 12.2797 51.1927 10.6726L50.3126 11.1474ZM51.4826 16.34V18.26H52.4826V16.34H51.4826ZM51.4826 18.26C51.4826 20.2949 51.0856 22.0197 50.3126 23.4526L51.1927 23.9274C52.0597 22.3203 52.4826 20.4251 52.4826 18.26H51.4826ZM50.3102 23.4571C49.5576 24.8869 48.4606 25.985 47.0076 26.7587L47.4776 27.6413C49.1046 26.775 50.3476 25.5331 51.1951 23.9229L50.3102 23.4571ZM47.0097 26.7575C45.5765 27.5119 43.8402 27.9 41.7826 27.9V28.9C43.965 28.9 45.8688 28.4881 47.4755 27.6425L47.0097 26.7575ZM41.7826 27.9C39.7253 27.9 37.9778 27.512 36.5231 26.7563L36.0621 27.6437C37.6874 28.488 39.5999 28.9 41.7826 28.9V27.9ZM36.53 26.76C35.0959 25.9863 33.9963 24.8867 33.2227 23.4526L32.3426 23.9274C33.2089 25.5333 34.4493 26.7737 36.0552 27.64L36.53 26.76ZM33.2251 23.4571C32.4704 22.0232 32.0826 20.2967 32.0826 18.26H31.0826C31.0826 20.4233 31.4948 22.3168 32.3402 23.9229L33.2251 23.4571ZM32.0826 18.26V16.31H31.0826V18.26H32.0826ZM32.0826 16.31C32.0826 13.2274 32.9521 10.8889 34.6342 9.22552L33.931 8.51448C32.0131 10.4111 31.0826 13.0326 31.0826 16.31H32.0826ZM34.6342 9.22552C36.3175 7.56093 38.6777 6.7 41.7826 6.7V5.7C38.4875 5.7 35.8478 6.61906 33.931 8.51448L34.6342 9.22552ZM41.7826 10.2C40.2692 10.2 39.0204 10.6181 38.1036 11.512L38.8017 12.228C39.4848 11.5619 40.4561 11.2 41.7826 11.2V10.2ZM38.0991 11.5164C37.2017 12.4138 36.7826 13.6449 36.7826 15.14H37.7826C37.7826 13.8351 38.1435 12.8862 38.8062 12.2236L38.0991 11.5164ZM36.7826 15.14V19.46H37.7826V15.14H36.7826ZM36.7826 19.46C36.7826 20.9551 37.2017 22.1862 38.0991 23.0836L38.8062 22.3764C38.1435 21.7138 37.7826 20.7649 37.7826 19.46H36.7826ZM38.1036 23.088C39.0204 23.9819 40.2692 24.4 41.7826 24.4V23.4C40.4561 23.4 39.4848 23.0381 38.8017 22.372L38.1036 23.088ZM41.7826 24.4C43.2954 24.4 44.5376 23.9822 45.4362 23.0836L44.7291 22.3764C44.0677 23.0378 43.1099 23.4 41.7826 23.4V24.4ZM45.4317 23.088C46.3513 22.1913 46.7826 20.9587 46.7826 19.46H45.7826C45.7826 20.7613 45.4139 21.7087 44.7336 22.372L45.4317 23.088ZM46.7826 19.46V15.14H45.7826V19.46H46.7826ZM46.7826 15.14C46.7826 13.6413 46.3513 12.4087 45.4317 11.512L44.7336 12.228C45.4139 12.8913 45.7826 13.8387 45.7826 15.14H46.7826ZM45.4362 11.5164C44.5376 10.6178 43.2954 10.2 41.7826 10.2V11.2C43.1099 11.2 44.0677 11.5622 44.7291 12.2236L45.4362 11.5164Z" fill="#FF5A5A"/>
</svg>
