<svg width="30" height="30" viewBox="0 0 30 30" fill="none" xmlns="http://www.w3.org/2000/svg">
<path d="M4.99976 15.25C4.99976 13.3644 4.99976 12.4216 5.58554 11.8358C6.17133 11.25 7.11414 11.25 8.99976 11.25H20.9998C22.8854 11.25 23.8282 11.25 24.414 11.8358C24.9998 12.4216 24.9998 13.3644 24.9998 15.25V20.25C24.9998 23.0784 24.9998 24.4926 24.1211 25.3713C23.2424 26.25 21.8282 26.25 18.9998 26.25H10.9998C8.17133 26.25 6.75712 26.25 5.87844 25.3713C4.99976 24.4926 4.99976 23.0784 4.99976 20.25V15.25Z" stroke="black" stroke-width="2"/>
<path d="M20.6248 11.25L20.7217 10.4743C21.0454 7.88479 19.8802 5.33431 17.7108 3.88381V3.88381C15.1278 2.15673 11.7089 2.3696 9.36007 4.40375L8.33716 5.28961" stroke="black" stroke-width="2" stroke-linecap="round"/>
<circle cx="15" cy="18.75" r="2.5" fill="black"/>
</svg>
