<svg width="24" height="24" viewBox="0 0 24 24" fill="none" xmlns="http://www.w3.org/2000/svg">
<mask id="mask0_2016_31304" style="mask-type:alpha" maskUnits="userSpaceOnUse" x="0" y="0" width="24" height="24">
<rect x="24" y="24" width="24" height="24" transform="rotate(-180 24 24)" fill="#D9D9D9"/>
</mask>
<g mask="url(#mask0_2016_31304)">
<path d="M21.175 11.9999L13.3 4.12489C13.1167 3.94156 13.025 3.71239 13.025 3.43739C13.025 3.16239 13.1167 2.92489 13.3 2.72489C13.5 2.52489 13.7375 2.42489 14.0125 2.42489C14.2875 2.42489 14.525 2.52489 14.725 2.72489L22.95 10.9499C23.1 11.0999 23.2083 11.2666 23.275 11.4499C23.3417 11.6332 23.375 11.8166 23.375 11.9999C23.375 12.1832 23.3417 12.3666 23.275 12.5499C23.2083 12.7332 23.1 12.8999 22.95 13.0499L14.7 21.2999C14.5 21.4999 14.2667 21.5957 14 21.5874C13.7333 21.5791 13.5 21.4749 13.3 21.2749C13.1167 21.0749 13.0208 20.8416 13.0125 20.5749C13.0042 20.3082 13.1 20.0749 13.3 19.8749L21.175 11.9999Z" fill="#1C1B1F"/>
</g>
</svg>
