<svg width="32" height="32" viewBox="0 0 32 32" fill="none" xmlns="http://www.w3.org/2000/svg">
<mask id="mask0_1162_12461" style="mask-type:alpha" maskUnits="userSpaceOnUse" x="0" y="0" width="32" height="32">
<rect width="32" height="32" fill="#D9D9D9"/>
</mask>
<g mask="url(#mask0_1162_12461)">
<path d="M14.7953 24.1889C12.06 24.1889 9.74366 23.2546 7.84621 21.3859C5.94874 19.5172 5 17.2534 5 14.5944C5 11.9355 5.94832 9.67173 7.84496 7.80304C9.74158 5.93435 12.0422 5 14.7468 5C17.4514 5 19.7517 5.93435 21.6476 7.80304C23.5434 9.67173 24.4914 11.9357 24.4914 14.5949C24.4914 15.7077 24.2981 16.7911 23.9115 17.845C23.525 18.8991 22.9658 19.8538 22.234 20.7092L27.5794 25.5421C27.7593 25.7075 27.8518 25.9245 27.8569 26.1931C27.8621 26.4617 27.7696 26.6872 27.5794 26.8695C27.3893 27.0517 27.1604 27.1429 26.893 27.1429C26.6255 27.1429 26.4027 27.0492 26.2244 26.8618L20.9193 22.0045C20.1172 22.7039 19.1819 23.2428 18.1133 23.6212C17.0448 23.9997 15.9388 24.1889 14.7953 24.1889ZM14.7705 22.3865C16.9729 22.3865 18.8388 21.6303 20.368 20.118C21.8973 18.6058 22.662 16.7646 22.662 14.5944C22.662 12.4243 21.8973 10.5831 20.368 9.07086C18.8388 7.5586 16.9729 6.80247 14.7705 6.80247C12.5543 6.80247 10.6768 7.5586 9.13783 9.07086C7.5989 10.5831 6.82943 12.4243 6.82943 14.5944C6.82943 16.7646 7.5989 18.6058 9.13783 20.118C10.6768 21.6303 12.5543 22.3865 14.7705 22.3865Z" fill="#1C1B1F"/>
</g>
</svg>
