<svg width="30" height="30" viewBox="0 0 30 30" fill="none" xmlns="http://www.w3.org/2000/svg">
<path d="M12.6797 8.28429C13.663 5.83305 14.1546 4.60742 15 4.60742C15.8454 4.60742 16.337 5.83305 17.3203 8.2843L17.3661 8.39844C17.9216 9.78327 18.1993 10.4757 18.7654 10.8966C19.3314 11.3174 20.0745 11.384 21.5606 11.5171L21.8293 11.5411C24.2616 11.7589 25.4777 11.8679 25.7379 12.6416C25.9982 13.4153 25.095 14.237 23.2887 15.8804L22.6859 16.4288C21.7715 17.2607 21.3143 17.6767 21.1012 18.2218C21.0614 18.3235 21.0284 18.4277 21.0023 18.5337C20.8622 19.1021 20.9961 19.7055 21.2638 20.9123L21.3472 21.288C21.8393 23.5059 22.0853 24.6148 21.6557 25.0932C21.4952 25.2719 21.2866 25.4006 21.0548 25.4638C20.4345 25.6331 19.5539 24.9155 17.7928 23.4804C16.6363 22.5381 16.0581 22.0669 15.3942 21.9609C15.133 21.9192 14.8669 21.9192 14.6058 21.9609C13.9419 22.0669 13.3637 22.5381 12.2072 23.4804C10.446 24.9155 9.56545 25.6331 8.9452 25.4638C8.71343 25.4006 8.50479 25.2719 8.34426 25.0932C7.91466 24.6148 8.16071 23.5059 8.6528 21.288L8.73615 20.9123C9.00391 19.7055 9.13779 19.1021 8.99772 18.5337C8.97159 18.4277 8.93855 18.3235 8.8988 18.2218C8.6857 17.6767 8.22851 17.2607 7.31413 16.4288L6.71128 15.8804C4.90497 14.237 4.00182 13.4153 4.26204 12.6416C4.52227 11.8679 5.7384 11.7589 8.17067 11.5411L8.43934 11.5171C9.92548 11.384 10.6686 11.3174 11.2346 10.8966C11.8007 10.4757 12.0784 9.78327 12.6339 8.39844L12.6797 8.28429Z" stroke="#818181" stroke-width="1.5"/>
</svg>
