<svg width="31" height="32" viewBox="0 0 31 32" fill="none" xmlns="http://www.w3.org/2000/svg">
<path d="M15.7993 27.6667C21.9958 27.6667 26.9327 22.3944 26.9327 16C26.9327 9.60564 21.9958 4.33334 15.7993 4.33334C9.60286 4.33334 4.66602 9.60564 4.66602 16C4.66602 22.3944 9.60286 27.6667 15.7993 27.6667Z" stroke="black" stroke-width="2"/>
<ellipse cx="15.8" cy="16" rx="3.8" ry="4" stroke="black" stroke-width="2"/>
<path d="M19.5996 16L20.0212 15.4779C21.18 14.0429 23.4959 14.9868 23.3214 16.8229V16.8229C23.1397 18.7363 25.6247 19.6358 26.7098 18.0494L27.1996 17.3333" stroke="black" stroke-width="2"/>
<path d="M12 16.6667L11.9806 16.7754C11.5896 18.9708 8.45085 19.0008 8.01791 16.8133L7.96426 16.5422C7.61589 14.782 5.25608 14.423 4.4 16V16" stroke="black" stroke-width="2"/>
<ellipse cx="12.6333" cy="8.66667" rx="0.633334" ry="0.666667" stroke="black"/>
<ellipse cx="21.4995" cy="11.3333" rx="0.633333" ry="0.666667" stroke="black"/>
<ellipse cx="17.6997" cy="7.33332" rx="0.633333" ry="0.666667" stroke="black"/>
</svg>
