<svg width="30" height="30" viewBox="0 0 30 30" fill="none" xmlns="http://www.w3.org/2000/svg">
<mask id="mask0_693_9635" style="mask-type:alpha" maskUnits="userSpaceOnUse" x="0" y="0" width="30" height="30">
<rect width="30" height="30" fill="#D9D9D9"/>
</mask>
<g mask="url(#mask0_693_9635)">
<path d="M5.625 26.25C5.10938 26.25 4.66797 26.0664 4.30078 25.6992C3.93359 25.332 3.75 24.8906 3.75 24.375V5.625C3.75 5.10938 3.93359 4.66797 4.30078 4.30078C4.66797 3.93359 5.10938 3.75 5.625 3.75H17.4688C17.7344 3.75 17.957 3.84036 18.1367 4.02109C18.3164 4.20184 18.4062 4.4258 18.4062 4.69297C18.4062 4.96016 18.3164 5.18229 18.1367 5.35938C17.957 5.53646 17.7344 5.625 17.4688 5.625H5.625V24.375H24.375V12.5625C24.375 12.2969 24.4654 12.0742 24.6461 11.8945C24.8268 11.7148 25.0508 11.625 25.318 11.625C25.5852 11.625 25.8073 11.7148 25.9844 11.8945C26.1615 12.0742 26.25 12.2969 26.25 12.5625V24.375C26.25 24.8906 26.0664 25.332 25.6992 25.6992C25.332 26.0664 24.8906 26.25 24.375 26.25H5.625ZM21.875 8.15625H20.2812C20.0156 8.15625 19.793 8.06589 19.6133 7.88516C19.4336 7.70441 19.3438 7.48045 19.3438 7.21328C19.3438 6.94609 19.4336 6.72396 19.6133 6.54688C19.793 6.36979 20.0156 6.28125 20.2812 6.28125H21.875V4.6875C21.875 4.42188 21.9654 4.19922 22.1461 4.01953C22.3268 3.83984 22.5508 3.75 22.818 3.75C23.0852 3.75 23.3073 3.83984 23.4844 4.01953C23.6615 4.19922 23.75 4.42188 23.75 4.6875V6.28125H25.3438C25.6094 6.28125 25.832 6.37161 26.0117 6.55234C26.1914 6.73309 26.2812 6.95705 26.2812 7.22422C26.2812 7.49141 26.1914 7.71354 26.0117 7.89062C25.832 8.06771 25.6094 8.15625 25.3438 8.15625H23.75V9.75C23.75 10.0156 23.6596 10.2383 23.4789 10.418C23.2982 10.5977 23.0742 10.6875 22.807 10.6875C22.5398 10.6875 22.3177 10.5977 22.1406 10.418C21.9635 10.2383 21.875 10.0156 21.875 9.75V8.15625ZM14.0312 20.4062L11.4688 17.0312C11.3646 16.9062 11.2396 16.8438 11.0938 16.8438C10.9479 16.8438 10.8229 16.9062 10.7188 17.0312L8.09375 20.4375C7.96875 20.6042 7.95312 20.7708 8.04688 20.9375C8.14062 21.1042 8.28125 21.1875 8.46875 21.1875H21.5625C21.7396 21.1875 21.8724 21.1042 21.9609 20.9375C22.0495 20.7708 22.0417 20.6042 21.9375 20.4375L18.375 15.6875C18.2708 15.5625 18.1458 15.5 18 15.5C17.8542 15.5 17.7292 15.5625 17.625 15.6875L14.0312 20.4062Z" fill="#707070"/>
</g>
</svg>
