<svg width="30" height="30" viewBox="0 0 30 30" fill="none" xmlns="http://www.w3.org/2000/svg">
<mask id="mask0_693_9634" style="mask-type:alpha" maskUnits="userSpaceOnUse" x="0" y="0" width="30" height="30">
<rect width="30" height="30" fill="#D9D9D9"/>
</mask>
<g mask="url(#mask0_693_9634)">
<path d="M3.125 26.25C2.625 26.25 2.1875 26.0625 1.8125 25.6875C1.4375 25.3125 1.25 24.875 1.25 24.375V8.34375C1.25 7.86458 1.4375 7.43229 1.8125 7.04688C2.1875 6.66146 2.625 6.46875 3.125 6.46875H7.71875L9.4375 4.40625C9.60417 4.17708 9.8125 4.01042 10.0625 3.90625C10.3125 3.80208 10.5833 3.75 10.875 3.75H17.625C17.8906 3.75 18.1133 3.84036 18.293 4.02109C18.4727 4.20184 18.5625 4.4258 18.5625 4.69297C18.5625 4.96016 18.4727 5.18229 18.293 5.35938C18.1133 5.53646 17.8906 5.625 17.625 5.625H10.875L8.59375 8.34375H3.125V24.375H24.375V12.375C24.375 12.1094 24.4654 11.8867 24.6461 11.707C24.8268 11.5273 25.0508 11.4375 25.318 11.4375C25.5852 11.4375 25.8073 11.5273 25.9844 11.707C26.1615 11.8867 26.25 12.1094 26.25 12.375V24.375C26.25 24.875 26.0573 25.3125 25.6719 25.6875C25.2865 26.0625 24.8542 26.25 24.375 26.25H3.125ZM24.375 5.625H22.625C22.3594 5.625 22.1367 5.53464 21.957 5.35391C21.7773 5.17316 21.6875 4.9492 21.6875 4.68203C21.6875 4.41484 21.7773 4.19271 21.957 4.01563C22.1367 3.83854 22.3594 3.75 22.625 3.75H24.375V1.96875C24.375 1.70313 24.4654 1.48047 24.6461 1.30078C24.8268 1.12109 25.0508 1.03125 25.318 1.03125C25.5852 1.03125 25.8073 1.12109 25.9844 1.30078C26.1615 1.48047 26.25 1.70313 26.25 1.96875V3.75H28.0313C28.2969 3.75 28.5195 3.84036 28.6992 4.02109C28.8789 4.20184 28.9688 4.4258 28.9688 4.69297C28.9688 4.96016 28.8789 5.18229 28.6992 5.35938C28.5195 5.53646 28.2969 5.625 28.0313 5.625H26.25V7.375C26.25 7.64063 26.1596 7.86328 25.9789 8.04297C25.7982 8.22266 25.5742 8.3125 25.307 8.3125C25.0398 8.3125 24.8177 8.22266 24.6406 8.04297C24.4635 7.86328 24.375 7.64063 24.375 7.375V5.625ZM13.7344 21.6563C15.2448 21.6563 16.5104 21.1458 17.5312 20.125C18.5521 19.1042 19.0625 17.8385 19.0625 16.3281C19.0625 14.8177 18.5521 13.5573 17.5312 12.5469C16.5104 11.5365 15.2448 11.0313 13.7344 11.0313C12.224 11.0313 10.9635 11.5365 9.95312 12.5469C8.94271 13.5573 8.4375 14.8177 8.4375 16.3281C8.4375 17.8385 8.94271 19.1042 9.95312 20.125C10.9635 21.1458 12.224 21.6563 13.7344 21.6563ZM13.7344 19.7813C12.7448 19.7813 11.9271 19.4531 11.2813 18.7969C10.6354 18.1406 10.3125 17.3177 10.3125 16.3281C10.3125 15.3385 10.6354 14.5208 11.2813 13.875C11.9271 13.2292 12.7448 12.9063 13.7344 12.9063C14.724 12.9063 15.5469 13.2292 16.2031 13.875C16.8594 14.5208 17.1875 15.3385 17.1875 16.3281C17.1875 17.3177 16.8594 18.1406 16.2031 18.7969C15.5469 19.4531 14.724 19.7813 13.7344 19.7813Z" fill="#707070"/>
</g>
</svg>
