<svg width="24" height="24" viewBox="0 0 24 24" fill="none" xmlns="http://www.w3.org/2000/svg">
<path d="M12 21C10.8181 21 9.64778 20.7672 8.55585 20.3149C7.46392 19.8626 6.47177 19.1997 5.63604 18.364C4.80031 17.5282 4.13738 16.5361 3.68508 15.4442C3.23279 14.3522 3 13.1819 3 12C3 10.8181 3.23279 9.64778 3.68508 8.55585C4.13738 7.46392 4.80031 6.47177 5.63604 5.63604C6.47177 4.80031 7.46392 4.13738 8.55585 3.68508C9.64778 3.23279 10.8181 3 12 3C13.1819 3 14.3522 3.23279 15.4442 3.68508C16.5361 4.13738 17.5282 4.80031 18.364 5.63604C19.1997 6.47177 19.8626 7.46392 20.3149 8.55585C20.7672 9.64778 21 10.8181 21 12C21 13.1819 20.7672 14.3522 20.3149 15.4442C19.8626 16.5361 19.1997 17.5282 18.364 18.364C17.5282 19.1997 16.5361 19.8626 15.4441 20.3149C14.3522 20.7672 13.1819 21 12 21L12 21Z" stroke="#9EA6BA" stroke-width="2" stroke-linecap="round"/>
<path d="M12 14.5C11.6717 14.5 11.3466 14.4353 11.0433 14.3097C10.74 14.1841 10.4644 13.9999 10.2322 13.7678C10.0001 13.5356 9.81594 13.26 9.6903 12.9567C9.56466 12.6534 9.5 12.3283 9.5 12C9.5 11.6717 9.56466 11.3466 9.6903 11.0433C9.81594 10.74 10.0001 10.4644 10.2322 10.2322C10.4644 10.0001 10.74 9.81594 11.0433 9.6903C11.3466 9.56466 11.6717 9.5 12 9.5C12.3283 9.5 12.6534 9.56466 12.9567 9.6903C13.26 9.81594 13.5356 10.0001 13.7678 10.2322C13.9999 10.4644 14.1841 10.74 14.3097 11.0433C14.4353 11.3466 14.5 11.6717 14.5 12C14.5 12.3283 14.4353 12.6534 14.3097 12.9567C14.1841 13.26 13.9999 13.5356 13.7678 13.7678C13.5356 13.9999 13.26 14.1841 12.9567 14.3097C12.6534 14.4353 12.3283 14.5 12 14.5L12 14.5Z" stroke="#9EA6BA" stroke-width="5" stroke-linecap="round"/>
</svg>
