<svg width="24" height="24" viewBox="0 0 24 24" fill="none" xmlns="http://www.w3.org/2000/svg">
<mask id="mask0_412_2405" style="mask-type:alpha" maskUnits="userSpaceOnUse" x="0" y="0" width="24" height="24">
<rect y="24" width="24" height="24" transform="rotate(-90 0 24)" fill="#D9D9D9"/>
</mask>
<g mask="url(#mask0_412_2405)">
<path d="M12.0001 21.175L19.8751 13.3C20.0584 13.1167 20.2876 13.025 20.5626 13.025C20.8376 13.025 21.0751 13.1167 21.2751 13.3C21.4751 13.5 21.5751 13.7375 21.5751 14.0125C21.5751 14.2875 21.4751 14.525 21.2751 14.725L13.0501 22.95C12.9001 23.1 12.7334 23.2083 12.5501 23.275C12.3668 23.3417 12.1834 23.375 12.0001 23.375C11.8168 23.375 11.6334 23.3417 11.4501 23.275C11.2668 23.2083 11.1001 23.1 10.9501 22.95L2.70011 14.7C2.50011 14.5 2.40428 14.2667 2.41261 14C2.42094 13.7333 2.52511 13.5 2.72511 13.3C2.92511 13.1167 3.15844 13.0208 3.42511 13.0125C3.69178 13.0042 3.92511 13.1 4.12511 13.3L12.0001 21.175Z" fill="#1C1B1F"/>
</g>
</svg>
