<svg width="24" height="24" viewBox="0 0 24 24" fill="none" xmlns="http://www.w3.org/2000/svg">
<mask id="mask0_2026_12042" style="mask-type:alpha" maskUnits="userSpaceOnUse" x="0" y="0" width="24" height="24">
<rect width="24" height="24" fill="#D9D9D9"/>
</mask>
<g mask="url(#mask0_2026_12042)">
<path d="M12 20.3268L10.8962 19.3345C9.23847 17.8306 7.86763 16.5383 6.78365 15.4576C5.69968 14.3768 4.84072 13.4149 4.20675 12.572C3.57277 11.729 3.12982 10.9601 2.8779 10.2653C2.62597 9.57039 2.5 8.86526 2.5 8.14988C2.5 6.73066 2.97852 5.54253 3.93558 4.58548C4.89263 3.62843 6.08076 3.1499 7.49998 3.1499C8.37306 3.1499 9.19806 3.35408 9.97498 3.76243C10.7519 4.17076 11.4269 4.75634 12 5.51915C12.5731 4.75634 13.2481 4.17076 14.025 3.76243C14.8019 3.35408 15.6269 3.1499 16.5 3.1499C17.9192 3.1499 19.1073 3.62843 20.0644 4.58548C21.0214 5.54253 21.5 6.73066 21.5 8.14988C21.5 8.86526 21.374 9.57039 21.1221 10.2653C20.8701 10.9601 20.4272 11.729 19.7932 12.572C19.1592 13.4149 18.3019 14.3768 17.2211 15.4576C16.1403 16.5383 14.7679 17.8306 13.1038 19.3345L12 20.3268ZM12 18.2999C13.6 16.8601 14.9166 15.6262 15.95 14.598C16.9833 13.5698 17.8 12.6765 18.4 11.9182C19 11.1598 19.4166 10.4864 19.65 9.89795C19.8833 9.30949 20 8.72679 20 8.14988C20 7.14988 19.6666 6.31654 19 5.64988C18.3333 4.98321 17.5 4.64988 16.5 4.64988C15.7102 4.64988 14.9804 4.87392 14.3106 5.322C13.6407 5.77007 13.1102 6.39347 12.7192 7.1922H11.2808C10.8833 6.38707 10.3513 5.76206 9.6846 5.31718C9.01793 4.87231 8.28973 4.64988 7.49998 4.64988C6.50639 4.64988 5.67466 4.98321 5.00478 5.64988C4.33491 6.31654 3.99998 7.14988 3.99998 8.14988C3.99998 8.72679 4.11664 9.30949 4.34998 9.89795C4.58331 10.4864 4.99998 11.1598 5.59998 11.9182C6.19998 12.6765 7.01664 13.5682 8.04998 14.5932C9.08331 15.6182 10.4 16.8537 12 18.2999Z" fill="#1C1B1F"/>
</g>
</svg>
