<svg width="30" height="31" viewBox="0 0 30 31" fill="none" xmlns="http://www.w3.org/2000/svg">
<path d="M5.05664 15.8643C5.05664 13.9786 5.05664 13.0358 5.64243 12.45C6.22821 11.8643 7.17102 11.8643 9.05664 11.8643H20.4435C22.3291 11.8643 23.2719 11.8643 23.8577 12.45C24.4435 13.0358 24.4435 13.9786 24.4435 15.8643V20.8643C24.4435 23.6927 24.4435 25.1069 23.5648 25.9856C22.6861 26.8643 21.2719 26.8643 18.4435 26.8643H11.0566C8.22821 26.8643 6.814 26.8643 5.93532 25.9856C5.05664 25.1069 5.05664 23.6927 5.05664 20.8643V15.8643Z" stroke="black" stroke-width="2"/>
<path d="M19.5968 10.6143V9.21097C19.5968 6.53421 17.4268 4.36426 14.75 4.36426V4.36426C12.0733 4.36426 9.90332 6.53421 9.90332 9.21097V10.6143" stroke="black" stroke-width="2" stroke-linecap="round"/>
<ellipse cx="14.7505" cy="19.3643" rx="2.42336" ry="2.5" fill="black"/>
</svg>
