<svg width="35" height="35" viewBox="0 0 35 35" fill="none" xmlns="http://www.w3.org/2000/svg">
<mask id="mask0_716_4983" style="mask-type:alpha" maskUnits="userSpaceOnUse" x="0" y="0" width="35" height="35">
<rect width="35" height="35" fill="#D9D9D9"/>
</mask>
<g mask="url(#mask0_716_4983)">
<path d="M6.5625 30.625C5.96094 30.625 5.44596 30.4108 5.01758 29.9824C4.58919 29.554 4.375 29.0391 4.375 28.4375V6.5625C4.375 5.96094 4.58919 5.44596 5.01758 5.01758C5.44596 4.58919 5.96094 4.375 6.5625 4.375H20.3802C20.6901 4.375 20.9499 4.48042 21.1595 4.69128C21.3691 4.90215 21.474 5.16344 21.474 5.47513C21.474 5.78685 21.3691 6.04601 21.1595 6.2526C20.9499 6.4592 20.6901 6.5625 20.3802 6.5625H6.5625V28.4375H28.4375V14.6563C28.4375 14.3464 28.5429 14.0866 28.7538 13.877C28.9647 13.6673 29.2259 13.5625 29.5376 13.5625C29.8493 13.5625 30.1085 13.6673 30.3151 13.877C30.5217 14.0866 30.625 14.3464 30.625 14.6563V28.4375C30.625 29.0391 30.4108 29.554 29.9824 29.9824C29.554 30.4108 29.0391 30.625 28.4375 30.625H6.5625ZM25.5208 9.51563H23.6615C23.3516 9.51563 23.0918 9.4102 22.8822 9.19935C22.6725 8.98847 22.5677 8.72719 22.5677 8.4155C22.5677 8.10378 22.6725 7.84462 22.8822 7.63802C23.0918 7.43142 23.3516 7.32813 23.6615 7.32813H25.5208V5.46875C25.5208 5.15885 25.6263 4.89909 25.8371 4.68945C26.048 4.47982 26.3093 4.375 26.621 4.375C26.9327 4.375 27.1918 4.47982 27.3984 4.68945C27.605 4.89909 27.7083 5.15885 27.7083 5.46875V7.32813H29.5677C29.8776 7.32813 30.1374 7.43355 30.347 7.6444C30.5566 7.85528 30.6615 8.11656 30.6615 8.42826C30.6615 8.73997 30.5566 8.99913 30.347 9.20573C30.1374 9.41233 29.8776 9.51563 29.5677 9.51563H27.7083V11.375C27.7083 11.6849 27.6029 11.9447 27.3921 12.1543C27.1812 12.3639 26.9199 12.4688 26.6082 12.4688C26.2965 12.4688 26.0373 12.3639 25.8307 12.1543C25.6241 11.9447 25.5208 11.6849 25.5208 11.375V9.51563ZM16.3698 23.8073L13.3802 19.8698C13.2587 19.724 13.1128 19.651 12.9427 19.651C12.7726 19.651 12.6267 19.724 12.5052 19.8698L9.44271 23.8438C9.29688 24.0382 9.27865 24.2326 9.38802 24.4271C9.4974 24.6215 9.66146 24.7188 9.88021 24.7188H25.1562C25.3628 24.7188 25.5178 24.6215 25.6211 24.4271C25.7244 24.2326 25.7153 24.0382 25.5938 23.8438L21.4375 18.3021C21.316 18.1563 21.1701 18.0833 21 18.0833C20.8299 18.0833 20.684 18.1563 20.5625 18.3021L16.3698 23.8073Z" fill="black"/>
</g>
</svg>
