<svg width="30" height="30" viewBox="0 0 30 30" fill="none" xmlns="http://www.w3.org/2000/svg">
<mask id="mask0_292_1650" style="mask-type:alpha" maskUnits="userSpaceOnUse" x="0" y="0" width="30" height="30">
<rect width="30" height="30" fill="#D9D9D9"/>
</mask>
<g mask="url(#mask0_292_1650)">
<path d="M9.72614 11.5032L17.7713 17.8784C17.9184 18.0002 17.9933 18.1528 17.996 18.3359C17.9988 18.5191 17.9252 18.6756 17.7754 18.8053C17.6086 18.9351 17.4099 19 17.1792 19C16.9485 19 16.7514 18.9349 16.588 18.8048L8.41203 12.3104C8.26296 12.1947 8.15702 12.0669 8.0942 11.9269C8.0314 11.787 8 11.6464 8 11.5051C8 11.3639 8.03059 11.2227 8.09177 11.0814C8.15296 10.9402 8.25972 10.8091 8.41203 10.6883L16.6036 4.18921C16.7703 4.05907 16.9656 3.99607 17.1895 4.00019C17.4133 4.00433 17.6073 4.07146 17.7713 4.20159C17.9184 4.33173 17.9946 4.48613 17.9998 4.66482C18.005 4.84349 17.9288 4.99789 17.7713 5.12802L9.72614 11.5032Z" fill="#818181"/>
</g>
</svg>
